<svg xmlns="http://www.w3.org/2000/svg" width="50" height="50" viewBox="0 0 50 50">
  <g id="cancel" transform="translate(-388 -1138)">
    <path id="Path_683" data-name="Path 683" d="M8,0H42a8,8,0,0,1,8,8V42a8,8,0,0,1-8,8H8a8,8,0,0,1-8-8V8A8,8,0,0,1,8,0Z" transform="translate(388 1138)" fill="#da0600"/>
    <path id="times" d="M15.689,91.376l6.468-6.468a2.033,2.033,0,0,0,0-2.875L20.72,80.6a2.033,2.033,0,0,0-2.875,0l-6.468,6.468L4.908,80.6a2.033,2.033,0,0,0-2.875,0L.6,82.033a2.033,2.033,0,0,0,0,2.875l6.468,6.468L.6,97.845a2.033,2.033,0,0,0,0,2.875l1.438,1.438a2.033,2.033,0,0,0,2.875,0l6.468-6.468,6.468,6.468a2.033,2.033,0,0,0,2.875,0l1.438-1.438a2.033,2.033,0,0,0,0-2.875Z" transform="translate(401.624 1071.624)" fill="#fff"/>
  </g>
</svg>
