<svg xmlns="http://www.w3.org/2000/svg" width="50" height="50" viewBox="0 0 50 50">
  <g id="Group_11" data-name="Group 11" transform="translate(-968 -830)">
    <rect id="Rectangle_8" data-name="Rectangle 8" width="50" height="50" rx="8" transform="translate(968 830)" fill="#6c59ae"/>
    <path id="paper-plane" d="M22.262.12.594,12.621a1.123,1.123,0,0,0,.1,2.02l4.969,2.085L19.1,4.889a.28.28,0,0,1,.4.388L8.237,19v3.763a1.122,1.122,0,0,0,1.987.739l2.969-3.614,5.825,2.44a1.125,1.125,0,0,0,1.543-.851l3.366-20.2A1.122,1.122,0,0,0,22.262.12Z" transform="translate(981 843.371)" fill="#fff"/>
  </g>
</svg>
